<?xml version="1.0" encoding="utf-8"?>
<!-- Generator: Adobe Illustrator 22.1.0, SVG Export Plug-In . SVG Version: 6.00 Build 0)  -->
<svg version="1.1" id="图层_1" xmlns="http://www.w3.org/2000/svg" xmlns:xlink="http://www.w3.org/1999/xlink" x="0px" y="0px"
	 viewBox="0 0 256 256" style="enable-background:new 0 0 256 256;" xml:space="preserve">
<style type="text/css">
	.st0{fill:#5A8CFF;}
</style>
<path class="st0" d="M192,43.7c7.5,5.3,14.2,11.4,20,18.1c5.8,6.7,10.8,14,15,21.8c4.2,7.8,7.3,16.1,9.5,24.8s3.2,17.6,3.2,26.6
	c0,15.5-3,30-8.9,43.5c-5.9,13.6-13.9,25.4-24,35.4c-10.1,10.1-21.9,18-35.4,24c-13.5,5.9-28.1,8.9-43.5,8.9
	c-15.3,0-29.7-3-43.3-8.9C71,232,59.2,224,49,214c-10.2-10.1-18.1-21.9-24-35.4c-5.8-13.6-8.7-28.1-8.7-43.5c0-8.8,1-17.5,3.1-26
	c2.1-8.5,5-16.6,8.9-24.2c3.8-7.6,8.6-14.8,14.2-21.5c5.7-6.7,12-12.6,19-18c3.7-2.7,7.6-3.7,11.9-3c4.2,0.7,7.7,2.7,10.4,6.2
	c2.7,3.5,3.7,7.4,3,11.7c-0.7,4.3-2.7,7.8-6.2,10.5C70,78.5,61.9,87.9,56.4,99C50.8,110.2,48,122.2,48,135c0,11,2.1,21.3,6.2,31.1
	c4.1,9.7,9.8,18.2,17.1,25.5c7.3,7.2,15.7,13,25.5,17.2c9.7,4.2,20.1,6.4,31.1,6.4c11,0,21.3-2.1,31.1-6.4s18.2-10,25.5-17.2
	c7.2-7.2,13-15.7,17.2-25.5c4.2-9.7,6.4-20.1,6.4-31.1c0-13-3-25.2-9-36.8c-6-11.6-14.4-21.1-25.2-28.6c-3.7-2.5-5.9-5.9-6.6-10.2
	c-0.8-4.3,0.1-8.3,2.6-12c2.5-3.5,5.9-5.6,10.2-6.4C184.4,40.3,188.3,41.2,192,43.7L192,43.7L192,43.7L192,43.7z M127.9,135.7
	c-4.3,0-8-1.5-11.1-4.6c-3.1-3.1-4.6-6.8-4.6-11.1V25.2c0-4.3,1.5-8.1,4.6-11.2c3.1-3.2,6.8-4.7,11.1-4.7c4.5,0,8.3,1.6,11.4,4.7
	c3.1,3.2,4.6,6.9,4.6,11.2V120c0,4.3-1.5,8-4.6,11.1C136.1,134.2,132.4,135.7,127.9,135.7L127.9,135.7L127.9,135.7L127.9,135.7z"/>
</svg>
